<svg width="878" height="166" viewBox="0 0 878 166" fill="none" xmlns="http://www.w3.org/2000/svg">
<path d="M1.60757 16.1104L25.2903 16.121L25.0236 126.891L0 126.916L1.60757 16.1104Z" fill="white"/>
<path d="M549.082 10.8128L550.719 10.6945L551.516 11.4327L551.654 29.7213C537.835 32.3615 523.823 36.2934 511.536 43.2658C510.823 45.828 511.099 49.066 511.099 51.7239L511.094 67.223L511.138 123.66L485.981 123.628L485.98 113.341L485.851 13.0113C486.973 12.3776 490.119 12.7199 491.467 12.7138L509.302 12.815L510.469 25.3288C523.159 18.9967 535.086 13.6975 549.082 10.8128Z" fill="white"/>
<path d="M698.869 0.718349L723.879 0.31604L723.912 12.7L753.453 12.7514L751.948 32.4185L723.907 32.4948L723.896 70.676C723.868 79.0169 722.856 87.7515 724.643 95.963C725.367 99.285 726.949 102.145 729.876 103.993C737.515 108.82 747.816 106.508 756.053 104.677L756.097 112.39C756.091 113.685 756.357 121.946 755.903 122.37C755.256 122.976 753.309 123.276 752.435 123.519C746.538 125.154 740.431 126.01 734.29 125.979C724.427 125.929 715.128 123.994 707.964 116.766C703.898 112.665 701.248 107.146 699.987 101.548C697.824 91.9432 698.919 81.7025 698.947 71.9311L699.013 32.4738L682.141 32.3455L682.146 18.1883C682.146 16.6827 681.831 14.1066 682.379 12.7697L698.919 12.6906L698.869 0.718349Z" fill="white"/>
<path d="M200.762 5.1145L223.657 5.05396L223.683 15.8046C225.181 16.5715 229.207 16.0794 230.956 16.0827L252.905 16.0888L251.298 35.7807L223.691 35.83L223.646 74.2899C223.58 82.174 222.491 90.5061 223.998 98.288C224.689 101.85 226.094 105.07 229.221 107.148C236.884 112.242 247.369 109.799 255.741 108.13L255.711 116.805L255.723 125.785C249.023 127.884 242.363 129.328 235.311 129.387C224.451 129.477 214.355 127.463 206.442 119.565C202.929 116.057 200.414 110.621 199.331 105.828C197.074 95.8346 197.993 85.1897 198.009 75.0064L198.046 35.8322L181.621 35.8073L181.616 16.1159L198.034 16.0357C197.829 12.9598 197.369 8.33845 198.657 5.50083L200.762 5.1145Z" fill="white"/>
<path d="M323.003 13.8219C332.153 13.285 341.454 15.1788 350.157 17.8533C345.468 23.1487 342.44 27.8612 340.29 34.6147C337.681 33.8649 335.014 33.2064 332.302 32.9764C323.505 32.231 311.347 32.3809 304.212 38.457C295.938 45.5035 295.384 54.6997 294.558 64.7011L342.067 65.003C343.453 71.1416 345.593 75.9896 349.128 81.1965C339.867 82.2327 329.889 81.4514 320.555 81.2391L294.847 81.353C295.251 84.5003 295.599 87.8726 296.667 90.8705C299.753 99.5255 305.92 103.529 313.855 107.254C323.541 110.207 333.293 110.117 343.325 110.151C345.482 116.7 349.27 122.236 353.62 127.504L343.487 128.904C324.609 130.631 302.775 128.58 287.666 115.987C276.48 106.664 272.255 93.179 271.014 79.1336C269.595 63.0727 271.899 43.6971 282.599 30.9621C293.24 18.2973 307.215 15.1849 323.003 13.8219Z" fill="white"/>
<path d="M118.041 13.8196L119.949 13.7466C131.082 13.6963 144.105 15.4093 152.39 23.6252C157.789 28.9792 160.298 36.6615 161.593 43.9734C163.322 53.7381 162.319 64.1973 162.305 74.0952L162.281 126.944L136.919 126.957L136.937 83.5746L136.917 63.2125C136.905 56.6869 137.229 49.4165 134.763 43.2425C133.085 39.0408 130.096 36.6615 126.025 34.9619C115.999 30.7762 103.32 33.0576 93.6056 37.0364C88.7475 39.1071 84.6323 42.0559 80.7765 45.6256L80.688 126.948L55.0836 126.931L54.9796 16.1441L78.7048 16.1247L79.8024 27.5101C87.7158 22.7013 95.8516 18.1966 104.874 15.819C109.218 14.6744 113.583 14.2647 118.041 13.8196Z" fill="white"/>
<path d="M824.942 10.4363C839.253 10.9511 853.857 12.9056 864.412 23.5832C878.883 38.2131 877.246 58.9937 877.157 77.9293L795.717 77.9917L796.79 84.1851C798.195 90.6786 801.531 96.9643 807.245 100.629C823.017 110.736 846.444 107.149 863.604 103.367L870.375 101.2L870.403 119.525C860.28 123.557 850.2 125.279 839.358 125.84C821.722 126.751 801.757 124.625 788.11 112.307C776.582 101.902 771.963 88.0832 771.21 72.9236C770.38 56.0616 773.517 38.6084 785.206 25.7463C795.733 14.1597 809.851 11.1402 824.942 10.4363ZM820.146 29.766C813.065 30.7884 806.133 32.1254 801.553 38.1617C796.585 44.7105 795.495 53.6342 795.689 61.5687L830.877 61.5908C834.479 61.5991 852.513 62.3428 854.438 61.3437C854.488 52.5748 854.869 42.7775 848.176 36.0583C842.705 30.5595 834.75 29.5371 827.376 29.5686C825.13 29.578 822.325 29.3392 820.146 29.766Z" fill="white"/>
<path d="M609.706 10.4147L610.94 10.3544C625.311 10.392 642.311 11.9867 653.01 22.6714C657.646 27.3027 660.461 33.6376 661.817 39.9736C664.123 50.7656 662.967 62.5717 662.951 73.5622L662.94 123.63L641.454 123.631L639.777 112.739C625.826 122.887 612.605 126.676 595.351 126.073C582.849 125.636 573.35 121.27 564.859 112.201C560.527 106.692 558.58 100.025 558.574 93.049C558.574 83.5641 561.13 74.4005 567.995 67.5895C579.889 55.7889 598.244 56.6051 613.761 56.6178L638.975 56.6841C639.025 51.9671 639.152 46.9443 637.753 42.3855C636.575 38.5476 634.351 35.5198 630.772 33.6266C625.439 30.8022 619.708 30.4229 613.783 30.1868C599.361 29.6112 585.415 31.7162 571.619 35.8731L571.68 17.4197C572.974 16.226 576.216 15.4723 577.914 14.9924C588.375 12.0331 598.886 10.9367 609.706 10.4147ZM600.02 73.8901C594.687 74.3772 588.978 75.425 585.393 79.7815C582.705 83.0471 581.482 88.9524 581.919 93.1397C582.317 96.9864 583.402 100.825 586.544 103.335C593.431 108.833 604.307 108.46 612.555 107.461L619.254 106.204C626.822 103.455 633.974 100.095 638.937 93.4488L638.926 73.7469L614.192 73.7021C609.523 73.6944 604.65 73.3903 600.02 73.8901Z" fill="white"/>
<path d="M397.67 10.893C398.751 10.4651 401.159 10.6564 402.439 10.6033C411.265 10.2395 420.219 10.8858 429.045 11.2546L469.694 12.7586L469.159 29.1103L450.197 29.1788C455.181 34.6152 458.564 41.8022 458.906 49.2075C459.352 58.8804 455.958 69.59 449.357 76.8019C440.144 86.8662 426.047 89.7138 412.942 89.1708C408.969 89.0066 404.789 88.0882 400.839 88.2917C395.767 88.5532 388.967 90.6145 385.532 94.5325C383.899 96.3959 383.455 98.6198 383.653 101.033C383.827 103.164 385.173 104.677 387.132 105.444C391.587 107.186 396.838 106.727 401.541 106.66C416.577 106.446 439.894 103.299 452.164 113.783C457.334 118.2 460.821 123.848 461.34 130.744C461.948 138.813 460.455 145.287 455.032 151.539C446.331 161.57 429.976 163.493 417.55 164.341C414.085 164.201 410.697 165.491 407.135 165.455C403.355 165.417 399.898 164.642 396.168 164.291C384.079 163.153 372.056 162.593 360.451 158.649L360.496 139.337C379.902 144.417 398.888 146.746 418.936 145.073C423.222 144.716 427.898 144.491 431.968 142.971C434.305 142.098 436.021 140.869 437.055 138.549C437.911 136.628 437.92 133.879 437.134 131.926C436.157 129.5 434.194 128.155 431.747 127.41C427.168 126.017 421.935 126.301 417.205 126.299L395.464 126.31C386.986 126.304 378.505 126.55 370.588 123.058C366.05 121.057 362.368 117.3 360.619 112.656C358.56 107.193 359.129 100.744 361.552 95.5079C364.158 89.8769 369.749 85.3916 375.514 83.2517L369.511 79.0932C362.291 73.513 358.597 65.3364 357.493 56.4597C356.2 46.0652 357.951 33.6415 364.563 25.226C372.567 15.0367 385.506 12.3793 397.67 10.893ZM406.927 26.4358C399.27 26.8676 391.342 27.4874 385.837 33.5918C381.276 38.6494 380.91 46.1399 381.292 52.587C381.611 57.946 382.812 63.3071 387.028 67.0106C393.447 72.6472 402.969 72.8971 411.058 72.7782C418.043 72.1921 426.245 71.7614 431.126 65.9534C435.283 61.0058 436.086 53.3274 435.488 47.0776C434.946 41.4173 433.746 35.4225 429.14 31.609C423.765 27.1607 414.179 25.8784 407.366 26.3755L406.927 26.4358Z" fill="white"/>
</svg>
